<?xml version="1.0" standalone="no"?>
<!DOCTYPE svg PUBLIC "-//W3C//DTD SVG 20010904//EN"
 "http://www.w3.org/TR/2001/REC-SVG-20010904/DTD/svg10.dtd">
<svg version="1.0" xmlns="http://www.w3.org/2000/svg"
 width="921.000000pt" height="920.000000pt" viewBox="0 0 921.000000 920.000000"
 preserveAspectRatio="xMidYMid meet">

<g transform="translate(0.000000,920.000000) scale(0.100000,-0.100000)"
fill="#000000" stroke="none">
<path d="M1885 6885 c-637 -103 -1152 -539 -1344 -1137 -60 -190 -81 -321 -81
-524 0 -555 266 -1062 728 -1382 93 -65 307 -171 417 -207 403 -133 858 -106
1240 74 183 87 300 168 449 311 350 336 532 785 513 1270 -10 249 -60 447
-172 675 -136 279 -327 495 -590 668 -183 120 -409 208 -634 246 -144 24 -394
27 -526 6z"/>
<path d="M7260 5374 c-119 -21 -153 -29 -210 -51 -135 -54 -271 -158 -354
-272 -233 -317 -191 -766 96 -1038 223 -210 549 -271 837 -157 238 94 423 315
475 566 99 479 -244 924 -734 952 -47 2 -96 2 -110 0z"/>
<path d="M1377 3280 c-116 -30 -191 -110 -204 -219 -15 -125 79 -236 125 -149
30 55 58 78 97 78 73 0 107 -76 70 -154 -9 -18 -54 -75 -100 -127 -47 -52
-100 -115 -117 -141 -18 -26 -36 -48 -40 -48 -6 0 -266 446 -286 493 -22 51
-15 76 33 124 50 49 58 85 25 103 -16 9 -36 6 -93 -14 -166 -56 -259 -58 -419
-6 -97 31 -121 29 -133 -10 -9 -27 -4 -32 79 -94 40 -29 88 -75 108 -102 19
-27 117 -190 217 -362 l181 -312 0 -267 c0 -321 -2 -330 -99 -382 -72 -38 -87
-64 -55 -95 13 -14 57 -16 323 -16 331 0 346 2 339 50 -2 18 -20 34 -67 60
-96 54 -96 55 -96 320 0 205 2 231 22 295 33 104 86 175 248 333 112 109 152
155 171 196 82 179 28 357 -128 426 -54 24 -147 33 -201 20z"/>
<path d="M5323 3060 c-61 -27 -85 -70 -80 -143 3 -51 8 -63 39 -93 19 -20 51
-39 71 -44 172 -38 262 195 107 277 -52 28 -82 29 -137 3z"/>
<path d="M2250 2710 c-103 -20 -180 -112 -180 -214 0 -113 112 -237 202 -224
20 3 23 8 20 38 -4 45 14 77 49 89 61 21 124 -21 170 -115 29 -58 33 -76 33
-148 1 -98 -22 -153 -89 -215 -48 -44 -88 -56 -166 -49 -99 10 -205 114 -260
256 -30 78 -37 240 -15 335 21 91 21 117 -2 117 -22 0 -40 -19 -76 -81 -70
-122 -107 -265 -107 -410 -1 -229 99 -412 268 -492 63 -30 75 -32 173 -32 94
0 111 3 160 27 118 58 199 157 247 302 25 74 27 94 27 241 0 147 -2 167 -27
241 -58 174 -185 308 -312 329 -22 3 -49 8 -60 9 -11 2 -36 0 -55 -4z"/>
<path d="M4537 2695 c-44 -17 -89 -46 -134 -89 l-33 -30 0 35 c-1 92 -28 107
-103 56 -75 -50 -123 -72 -204 -92 -103 -24 -117 -52 -49 -94 60 -38 61 -41
61 -405 0 -366 -1 -370 -65 -416 -24 -17 -30 -29 -28 -49 l3 -26 234 0 c216 0
235 1 245 18 9 16 5 24 -30 55 -23 20 -47 47 -53 59 -12 24 -16 585 -4 643 9
48 79 116 128 126 46 8 96 -14 129 -59 20 -27 21 -43 24 -325 2 -163 0 -317
-3 -341 -5 -33 -18 -55 -53 -93 -37 -40 -44 -53 -35 -66 9 -15 37 -17 233 -20
156 -2 227 1 236 9 23 19 16 45 -21 73 -19 15 -40 37 -47 49 -10 16 -15 123
-19 397 -4 246 -10 388 -18 412 -20 62 -71 120 -136 153 -49 25 -72 30 -139
32 -52 2 -95 -3 -119 -12z"/>
<path d="M6092 2691 c-152 -52 -271 -193 -333 -391 -20 -64 -23 -96 -23 -215
0 -124 3 -149 26 -217 65 -194 199 -308 361 -308 75 0 136 25 190 78 l39 37
-4 -162 c-4 -187 -8 -198 -97 -246 -45 -25 -52 -33 -49 -55 2 -18 11 -28 28
-33 31 -9 456 -11 487 -3 37 10 36 43 -4 78 -66 59 -63 20 -64 738 -1 359 -4
664 -8 678 -12 45 -51 38 -117 -20 -68 -60 -91 -73 -194 -111 -64 -23 -75 -30
-75 -50 0 -15 12 -31 35 -47 58 -39 59 -44 60 -307 0 -230 -1 -243 -22 -285
-28 -55 -59 -72 -117 -67 -53 6 -88 30 -123 88 -117 189 -47 598 120 701 26
16 58 24 112 28 62 4 75 8 78 23 14 70 -178 112 -306 68z"/>
<path d="M8354 2692 c-212 -73 -346 -296 -347 -577 0 -182 51 -323 155 -428
170 -172 451 -170 613 5 66 71 107 155 113 229 6 83 -13 85 -96 8 -86 -81
-146 -109 -235 -109 -74 0 -120 18 -189 72 -39 31 -93 127 -105 188 l-6 34 43
-36 c194 -167 520 -4 581 290 21 105 -10 254 -59 281 -11 6 -46 10 -78 10 -39
-1 -86 8 -136 25 -91 31 -179 34 -254 8z m188 -148 c50 -26 73 -71 77 -156 2
-64 -1 -85 -19 -122 -53 -110 -167 -149 -236 -81 -50 50 -19 136 43 121 62
-16 78 -13 81 16 7 56 -86 103 -153 78 -17 -6 -40 -21 -52 -32 l-23 -21 0 22
c0 61 89 174 148 187 15 3 32 7 37 9 16 4 68 -7 97 -21z"/>
<path d="M3090 2674 c-52 -37 -116 -65 -205 -88 -72 -19 -80 -24 -83 -47 -2
-20 5 -31 37 -52 28 -19 43 -37 50 -64 7 -22 11 -156 11 -324 0 -307 6 -355
55 -426 55 -82 139 -117 262 -111 101 5 153 26 219 90 l41 39 6 -47 c2 -25 11
-50 18 -55 8 -5 93 -8 189 -6 174 2 175 2 178 25 3 16 -10 38 -42 72 l-46 49
-1 458 c-1 252 -4 469 -8 483 -11 40 -43 36 -124 -13 -68 -42 -131 -67 -205
-82 -68 -14 -74 -58 -13 -89 49 -26 53 -50 49 -327 -3 -291 -8 -311 -83 -354
-69 -41 -140 -28 -181 32 -18 26 -19 54 -22 423 -1 217 -4 405 -7 418 -7 30
-49 29 -95 -4z"/>
<path d="M5398 2654 c-47 -31 -96 -52 -164 -72 -53 -14 -99 -33 -102 -41 -3
-8 14 -31 44 -56 l49 -43 3 -333 c2 -184 1 -348 -3 -365 -3 -17 -25 -50 -51
-77 -38 -40 -43 -49 -34 -67 10 -19 20 -20 239 -20 186 0 231 3 240 14 16 18
2 47 -33 70 -61 39 -61 37 -66 556 l-5 475 -25 2 c-15 1 -51 -15 -92 -43z"/>
<path d="M7096 2658 c-39 -24 -107 -53 -159 -68 -120 -34 -128 -47 -62 -104
l50 -44 6 -328 c6 -367 9 -385 76 -463 60 -70 101 -86 223 -86 117 0 161 15
238 81 l40 34 7 -39 c4 -22 12 -45 20 -51 8 -7 72 -10 185 -8 151 3 174 5 184
20 9 14 3 25 -31 60 -23 24 -47 56 -52 71 -7 18 -11 186 -11 478 0 291 -4 457
-10 470 -15 27 -45 24 -96 -12 -49 -33 -132 -72 -179 -83 -99 -23 -105 -26
-105 -51 0 -16 11 -30 35 -45 19 -12 40 -30 45 -40 6 -11 10 -125 10 -274 0
-293 -5 -318 -73 -367 -68 -49 -151 -34 -193 35 -18 29 -19 62 -24 441 l-5
410 -25 2 c-15 2 -53 -14 -94 -39z"/>
<path d="M6860 1420 l0 -30 1010 0 1010 0 0 30 0 30 -1010 0 -1010 0 0 -30z"/>
<path d="M692 1408 l3 -23 2713 -3 2712 -2 0 25 0 25 -2716 0 -2715 0 3 -22z"/>
<path d="M6860 1300 c0 -7 343 -10 1010 -10 667 0 1010 3 1010 10 0 7 -343 10
-1010 10 -667 0 -1010 -3 -1010 -10z"/>
<path d="M690 1290 c0 -7 912 -10 2715 -10 1803 0 2715 3 2715 10 0 7 -912 10
-2715 10 -1803 0 -2715 -3 -2715 -10z"/>
</g>
</svg>
